<svg xmlns="http://www.w3.org/2000/svg" viewBox="0 0 500 500" width="100%" height="100%">
  <rect x="50" y="50" width="400" height="400" rx="90" ry="90" fill="#164C93" />
  
  <g fill="#FFFFFF">
    <path d="M 250,165 L 390,218 L 250,271 L 110,218 Z" />
    
    <path d="M 165,250 C 165,295 335,295 335,250 L 335,280 C 335,315 165,315 165,280 Z" />
    
    <path d="M 250,218 L 160,250 C 148,255 145,268 145,285 L 140,315 C 138,325 152,325 150,315 L 152,285 C 153,275 158,268 165,262 Z" />
    <ellipse cx="145" cy="318" rx="8" ry="12" />
  </g>
</svg>
