<?xml version="1.0" standalone="no"?>
<!DOCTYPE svg PUBLIC "-//W3C//DTD SVG 20010904//EN"
 "http://www.w3.org/TR/2001/REC-SVG-20010904/DTD/svg10.dtd">
<svg version="1.0" xmlns="http://www.w3.org/2000/svg"
 width="491.000000pt" height="508.000000pt" viewBox="0 0 491.000000 508.000000"
 preserveAspectRatio="xMidYMid meet">

<g transform="translate(0.000000,508.000000) scale(0.100000,-0.100000)"
fill="#000000" stroke="none">
<path d="M915 5009 c-417 -50 -774 -352 -889 -753 l-26 -88 0 -1654 0 -1654
31 -97 c56 -175 124 -288 253 -421 120 -124 269 -219 426 -272 153 -52 118
-51 1781 -48 l1544 3 92 27 c182 54 281 106 422 222 155 128 285 337 336 541
l25 100 -2 1625 -3 1625 -31 100 c-70 224 -196 404 -379 540 -131 97 -242 147
-422 192 -62 15 -197 17 -1578 19 -830 1 -1541 -2 -1580 -7z m1580 -1450 c22
-6 159 -58 305 -116 146 -58 396 -156 555 -219 717 -284 677 -267 697 -299 24
-40 23 -79 -4 -109 -22 -25 -182 -90 -793 -325 -104 -41 -320 -125 -480 -188
-253 -100 -296 -114 -335 -111 -25 3 -142 43 -260 91 -118 47 -291 115 -385
152 -311 121 -330 129 -339 136 -16 14 62 43 534 201 261 87 484 165 497 173
43 29 17 115 -35 115 -23 0 -952 -311 -1022 -342 -163 -73 -251 -208 -266
-405 l-6 -88 35 -32 c66 -60 74 -154 19 -222 l-30 -38 37 -191 c41 -211 40
-236 -13 -260 -36 -16 -204 -15 -236 1 -52 26 -53 46 -11 258 l38 194 -22 25
c-34 38 -45 65 -45 109 0 52 14 87 48 120 26 24 29 35 40 148 13 136 34 202
91 290 l38 59 -61 24 c-228 88 -256 106 -256 173 0 58 -22 49 1045 470 617
244 556 224 620 206z m-575 -1327 c450 -179 460 -182 530 -182 60 0 110 15
275 80 456 181 659 259 666 254 4 -2 7 -121 5 -263 l-2 -259 -28 -55 c-61
-126 -222 -222 -475 -286 -164 -41 -310 -55 -510 -48 -186 6 -287 22 -440 67
-214 64 -356 161 -411 281 -18 40 -20 67 -20 307 l0 263 23 -7 c12 -4 186 -72
387 -152z"/>
</g>
</svg>
